HIERARCHY
ROOT Hips
{
	OFFSET 0.000003 96.368652 -0.035689
	CHANNELS 6 Xposition Yposition Zposition Xrotation Yrotation Zrotation
	JOINT Spine
	{
		OFFSET 0.000010 9.226303 1.577100
		CHANNELS 6 Xposition Yposition Zposition Xrotation Yrotation Zrotation
		JOINT Spine1
		{
			OFFSET 0.000000 16.253998 -0.165600
			CHANNELS 6 Xposition Yposition Zposition Xrotation Yrotation Zrotation
			JOINT Spine2
			{
				OFFSET -0.000000 13.639587 -1.292299
				CHANNELS 6 Xposition Yposition Zposition Xrotation Yrotation Zrotation
				JOINT Neck
				{
					OFFSET 0.000000 13.877411 -4.354199
					CHANNELS 6 Xposition Yposition Zposition Xrotation Yrotation Zrotation
					JOINT Neck1
					{
						OFFSET 0.000000 4.339996 0.926899
						CHANNELS 6 Xposition Yposition Zposition Xrotation Yrotation Zrotation
						JOINT Head
						{
							OFFSET 0.000000 4.026611 0.858500
							CHANNELS 6 Xposition Yposition Zposition Xrotation Yrotation Zrotation
							JOINT HeadTop_End
							{
								OFFSET 0.000000 21.748810 0.000000
								CHANNELS 6 Xposition Yposition Zposition Xrotation Yrotation Zrotation
								End Site
								{
									OFFSET 0.000000 11.825378 0.000000
								}
							}
							JOINT L_Eye
							{
								OFFSET 3.005700 7.261795 7.955601
								CHANNELS 6 Xposition Yposition Zposition Xrotation Yrotation Zrotation
								End Site
								{
									OFFSET 0.000000 11.825378 0.000000
								}
							}
							JOINT R_Eye
							{
								OFFSET -3.005700 7.261795 7.955601
								CHANNELS 6 Xposition Yposition Zposition Xrotation Yrotation Zrotation
								End Site
								{
									OFFSET 0.000000 11.825378 0.000000
								}
							}
							JOINT Jaw
							{
								OFFSET 0.000000 2.030289 2.456200
								CHANNELS 6 Xposition Yposition Zposition Xrotation Yrotation Zrotation
								End Site
								{
									OFFSET 0.000000 11.825378 0.000000
								}
							}
						}
					}
				}
				JOINT L_Shoulder
				{
					OFFSET 6.144200 10.187012 -3.793198
					CHANNELS 6 Xposition Yposition Zposition Xrotation Yrotation Zrotation
					JOINT L_Arm
					{
						OFFSET 12.319103 -1.112991 -1.793500
						CHANNELS 3 Xrotation Yrotation Zrotation
						JOINT L_ForeArm
						{
							OFFSET 27.687006 -0.000015 -0.000000
							CHANNELS 3 Xrotation Yrotation Zrotation
							JOINT L_Hand
							{
								OFFSET 27.873787 0.000031 -0.000000
								CHANNELS 3 Xrotation Yrotation Zrotation
								JOINT L_HandThumb1
								{
									OFFSET 2.421021 -1.395554 2.392360
									CHANNELS 6 Xposition Yposition Zposition Xrotation Yrotation Zrotation
									JOINT L_HandThumb2
									{
										OFFSET 3.496521 -2.018692 2.018717
										CHANNELS 6 Xposition Yposition Zposition Xrotation Yrotation Zrotation
										JOINT L_HandThumb3
										{
											OFFSET 4.011398 -2.315994 2.315975
											CHANNELS 6 Xposition Yposition Zposition Xrotation Yrotation Zrotation
											JOINT L_HandThumb4
											{
												OFFSET 2.095787 -1.210007 1.209984
												CHANNELS 6 Xposition Yposition Zposition Xrotation Yrotation Zrotation
												End Site
												{
													OFFSET 1.877617 -1.197205 1.536803
												}
											}
										}
									}
								}
								JOINT L_HandIndex1
								{
									OFFSET 10.514771 -0.231369 2.264849
									CHANNELS 6 Xposition Yposition Zposition Xrotation Yrotation Zrotation
									JOINT L_HandIndex2
									{
										OFFSET 5.549301 0.000000 0.000000
										CHANNELS 3 Xrotation Yrotation Zrotation
										JOINT L_HandIndex3
										{
											OFFSET 3.391098 0.000000 0.000001
											CHANNELS 3 Xrotation Yrotation Zrotation
											JOINT L_HandIndex4
											{
												OFFSET 2.334351 0.000000 0.000011
												CHANNELS 6 Xposition Yposition Zposition Xrotation Yrotation Zrotation
												End Site
												{
													OFFSET 2.334351 0.000000 0.000101
												}
											}
										}
									}
								}
								JOINT L_HandMiddle1
								{
									OFFSET 10.490761 -0.000015 0.000002
									CHANNELS 6 Xposition Yposition Zposition Xrotation Yrotation Zrotation
									JOINT L_HandMiddle2
									{
										OFFSET 5.792099 0.000000 0.000000
										CHANNELS 3 Xrotation Yrotation Zrotation
										JOINT L_HandMiddle3
										{
											OFFSET 3.713196 0.000000 0.000000
											CHANNELS 3 Xrotation Yrotation Zrotation
											JOINT L_HandMiddle4
											{
												OFFSET 2.752045 -0.000031 0.000022
												CHANNELS 6 Xposition Yposition Zposition Xrotation Yrotation Zrotation
												End Site
												{
													OFFSET 2.752045 0.000031 -0.003599
												}
											}
										}
									}
								}
								JOINT L_HandRing1
								{
									OFFSET 10.240753 -0.046051 -2.314147
									CHANNELS 6 Xposition Yposition Zposition Xrotation Yrotation Zrotation
									JOINT L_HandRing2
									{
										OFFSET 5.445206 -0.000015 0.000676
										CHANNELS 3 Xrotation Yrotation Zrotation
										JOINT L_HandRing3
										{
											OFFSET 3.713196 0.000015 -0.000674
											CHANNELS 3 Xrotation Yrotation Zrotation
											JOINT L_HandRing4
											{
												OFFSET 2.280716 0.000000 -0.000046
												CHANNELS 3 Xrotation Yrotation Zrotation
												End Site
												{
													OFFSET 2.280716 -0.000061 0.003501
												}
											}
										}
									}
								}
								JOINT L_HandPinky1
								{
									OFFSET 9.820259 -0.209747 -4.418469
									CHANNELS 6 Xposition Yposition Zposition Xrotation Yrotation Zrotation
									JOINT L_HandPinky2
									{
										OFFSET 3.676300 0.000000 0.000000
										CHANNELS 3 Xrotation Yrotation Zrotation
										JOINT L_HandPinky3
										{
											OFFSET 2.811295 0.000000 0.000001
											CHANNELS 3 Xrotation Yrotation Zrotation
											JOINT L_HandPinky4
											{
												OFFSET 1.659546 0.000000 0.000000
												CHANNELS 3 Xrotation Yrotation Zrotation
												End Site
												{
													OFFSET 1.659546 0.000015 -0.001891
												}
											}
										}
									}
								}
							}
						}
					}
				}
				JOINT R_Shoulder
				{
					OFFSET -6.140200 10.187012 -3.793198
					CHANNELS 6 Xposition Yposition Zposition Xrotation Yrotation Zrotation
					JOINT R_Arm
					{
						OFFSET -12.323095 -1.113007 -1.793499
						CHANNELS 3 Xrotation Yrotation Zrotation
						JOINT R_ForeArm
						{
							OFFSET -27.687002 0.000015 -0.000002
							CHANNELS 3 Xrotation Yrotation Zrotation
							JOINT R_Hand
							{
								OFFSET -27.873795 -0.000015 0.000000
								CHANNELS 3 Xrotation Yrotation Zrotation
								JOINT R_HandPinky1
								{
									OFFSET -9.791023 -0.212921 -4.378341
									CHANNELS 6 Xposition Yposition Zposition Xrotation Yrotation Zrotation
									JOINT R_HandPinky2
									{
										OFFSET -3.652802 0.000000 0.000000
										CHANNELS 3 Xrotation Yrotation Zrotation
										JOINT R_HandPinky3
										{
											OFFSET -2.781998 0.000000 0.000000
											CHANNELS 3 Xrotation Yrotation Zrotation
											JOINT R_HandPinky4
											{
												OFFSET -1.612122 0.000198 0.000004
												CHANNELS 3 Xrotation Yrotation Zrotation
												End Site
												{
													OFFSET -1.612106 0.000320 -0.007100
												}
											}
										}
									}
								}
								JOINT R_HandRing1
								{
									OFFSET -10.391914 0.105164 -2.349891
									CHANNELS 6 Xposition Yposition Zposition Xrotation Yrotation Zrotation
									JOINT R_HandRing2
									{
										OFFSET -5.401306 0.000000 0.000000
										CHANNELS 3 Xrotation Yrotation Zrotation
										JOINT R_HandRing3
										{
											OFFSET -3.391602 0.000000 0.000000
											CHANNELS 3 Xrotation Yrotation Zrotation
											JOINT R_HandRing4
											{
												OFFSET -2.353172 0.000305 -0.000032
												CHANNELS 3 Xrotation Yrotation Zrotation
												End Site
												{
													OFFSET -2.353180 0.000275 0.001400
												}
											}
										}
									}
								}
								JOINT R_HandMiddle1
								{
									OFFSET -10.779236 0.000000 0.000001
									CHANNELS 6 Xposition Yposition Zposition Xrotation Yrotation Zrotation
									JOINT R_HandMiddle2
									{
										OFFSET -5.616806 0.000000 0.000000
										CHANNELS 3 Xrotation Yrotation Zrotation
										JOINT R_HandMiddle3
										{
											OFFSET -3.736397 0.000000 0.000000
											CHANNELS 3 Xrotation Yrotation Zrotation
											JOINT R_HandMiddle4
											{
												OFFSET -2.691521 0.000336 -0.000028
												CHANNELS 3 Xrotation Yrotation Zrotation
												End Site
												{
													OFFSET -2.691513 0.000214 0.009200
												}
											}
										}
									}
								}
								JOINT R_HandIndex1
								{
									OFFSET -10.577324 -0.175369 2.287349
									CHANNELS 6 Xposition Yposition Zposition Xrotation Yrotation Zrotation
									JOINT R_HandIndex2
									{
										OFFSET -5.376801 0.000000 0.000001
										CHANNELS 3 Xrotation Yrotation Zrotation
										JOINT R_HandIndex3
										{
											OFFSET -3.385498 0.000000 0.000001
											CHANNELS 3 Xrotation Yrotation Zrotation
											JOINT R_HandIndex4
											{
												OFFSET -2.363556 0.000305 0.000042
												CHANNELS 3 Xrotation Yrotation Zrotation
												End Site
												{
													OFFSET -2.363548 0.000381 -0.006501
												}
											}
										}
									}
								}
								JOINT R_HandThumb1
								{
									OFFSET -2.570442 -1.245102 2.319054
									CHANNELS 6 Xposition Yposition Zposition Xrotation Yrotation Zrotation
									JOINT R_HandThumb2
									{
										OFFSET -3.518791 -2.031555 2.031563
										CHANNELS 6 Xposition Yposition Zposition Xrotation Yrotation Zrotation
										JOINT R_HandThumb3
										{
											OFFSET -3.945267 -2.277756 2.277756
											CHANNELS 6 Xposition Yposition Zposition Xrotation Yrotation Zrotation
											JOINT R_HandThumb4
											{
												OFFSET -2.055496 -1.186386 1.186664
												CHANNELS 3 Xrotation Yrotation Zrotation
												End Site
												{
													OFFSET -1.840202 -1.174805 1.508071
												}
											}
										}
									}
								}
							}
						}
					}
				}
			}
		}
	}
	JOINT L_UpLeg
	{
		OFFSET 9.633796 -3.273308 -0.000000
		CHANNELS 6 Xposition Yposition Zposition Xrotation Yrotation Zrotation
		JOINT L_Leg
		{
			OFFSET -0.006490 -41.762173 -0.553830
			CHANNELS 3 Xrotation Yrotation Zrotation
			JOINT L_Foot
			{
				OFFSET 0.006493 -39.146984 -2.021915
				CHANNELS 3 Xrotation Yrotation Zrotation
				JOINT L_ToeBase
				{
					OFFSET -0.183300 -12.185708 8.282301
					CHANNELS 6 Xposition Yposition Zposition Xrotation Yrotation Zrotation
					JOINT L_Toe_End
					{
						OFFSET -0.094684 -0.116787 6.663326
						CHANNELS 3 Xrotation Yrotation Zrotation
						End Site
						{
							OFFSET -0.094684 -0.116787 6.663328
						}
					}
				}
			}
		}
	}
	JOINT R_UpLeg
	{
		OFFSET -9.633803 -3.273293 0.000000
		CHANNELS 6 Xposition Yposition Zposition Xrotation Yrotation Zrotation
		JOINT R_Leg
		{
			OFFSET -0.006491 -41.762146 -0.555884
			CHANNELS 3 Xrotation Yrotation Zrotation
			JOINT R_Foot
			{
				OFFSET 0.006493 -39.147087 -2.019920
				CHANNELS 3 Xrotation Yrotation Zrotation
				JOINT R_ToeBase
				{
					OFFSET -0.183299 -12.185700 8.282300
					CHANNELS 6 Xposition Yposition Zposition Xrotation Yrotation Zrotation
					JOINT R_Toe_End
					{
						OFFSET 0.094687 -0.116863 6.675869
						CHANNELS 3 Xrotation Yrotation Zrotation
						End Site
						{
							OFFSET 0.094687 -0.116863 6.675869
						}
					}
				}
			}
		}
	}
}
MOTION
Frames: 4
Frame Time: 0.033333
-2.509338 83.623703 3.897817 1.693146 -50.947163 2.607492 0.000011 9.226304 1.577100 0.468507 1.120215 -4.468939 0.000001 16.253998 -0.165603 21.885775 11.000618 1.916275 0.000002 13.639590 -1.292302 19.355393 13.477449 4.404238 -0.000004 13.877381 -4.354201 -7.967269 1.006794 2.249077 -0.000004 4.339996 0.926899 -0.000002 0.000002 -0.000003 -0.000000 4.026613 0.858508 -8.834444 23.054238 -9.964337 -0.000003 21.748825 0.000002 0.000001 0.000000 0.000002 3.005702 7.261810 7.955606 0.000001 0.000000 0.000002 -3.005703 7.261810 7.955609 0.000001 0.000000 0.000002 0.000002 2.030319 2.456201 0.000001 0.000000 0.000002 6.144196 10.186982 -3.793212 -2.780495 -33.122965 -4.095353 -57.173796 -2.851813 -49.563493 -87.992856 20.194624 -85.782456 -31.027763 -4.559805 5.282476 2.421013 -1.395548 2.392366 0.699367 9.503640 -2.418223 3.496513 -2.018668 2.018711 5.975143 12.647613 1.348443 4.011409 -2.315995 2.315971 -23.873502 -17.664331 1.604756 2.095785 -1.210010 1.209993 0.000005 -0.000001 0.000001 10.514767 -0.231391 2.264854 9.479731 -1.289639 -20.785565 0.709585 2.796612 -28.466914 0.714100 2.805017 -28.559804 2.334327 0.000015 0.000005 0.000001 -0.000001 0.000001 10.490761 -0.000018 0.000004 10.058185 -1.800472 -20.644721 1.774448 4.200736 -45.781959 1.632368 4.058132 -43.809294 2.752052 -0.000049 0.000023 -0.000004 0.000001 0.000000 10.240748 -0.046043 -2.314139 1.256463 -0.066897 -17.945543 3.744587 5.453161 -68.964263 5.298077 9.647992 -33.747579 0.000002 0.000001 -0.000000 9.820250 -0.209745 -4.418464 -7.938289 1.609114 -6.495687 2.210770 4.584014 -51.475130 0.883894 3.096287 -31.858096 -0.000000 -0.000002 0.000000 -6.140197 10.186995 -3.793218 4.168005 -6.764175 1.045581 -22.316945 51.716017 43.517089 40.937155 123.494424 -53.681011 -1.187411 1.341914 -3.721162 -9.791019 -0.212919 -4.378334 -17.635846 -10.496825 3.325278 4.994444 -4.645781 94.147956 3.648019 -4.547252 77.470697 0.000002 -0.000000 0.000000 -10.391910 0.105166 -2.349873 -12.155661 -12.624052 9.228257 6.567921 -4.249071 114.232291 3.754958 -4.569700 78.826906 -0.000000 -0.000000 -0.000001 -10.779236 0.000014 0.000020 3.764143 -12.080492 1.143712 5.715094 -4.536458 103.133384 3.160365 -4.411089 71.242070 0.000000 -0.000000 -0.000000 -10.577325 -0.175358 2.287363 0.357766 -5.832780 5.175817 0.094353 -0.933712 11.539793 0.778335 -2.579728 33.567204 0.000000 -0.000001 -0.000002 -2.570445 -1.245108 2.319063 13.942773 -4.273676 -5.299977 -3.518801 -2.031565 2.031568 7.113216 -20.767533 -2.619626 -3.945270 -2.277752 2.277746 -3.460570 -24.899339 -18.653815 0.000000 0.000006 0.000001 9.633796 -3.273308 -0.000000 -29.161653 18.305129 8.118649 60.324552 4.423073 11.110315 -32.796311 5.832250 -9.808403 -0.183301 -12.185707 8.282299 0.662665 -0.031246 -2.625191 0.000000 -0.000001 -0.000000 -9.633804 -3.273291 0.000002 -51.553715 -6.494733 -23.030355 73.533851 -4.117114 -4.517543 -9.028426 0.622787 -2.945730 -0.183300 -12.185699 8.282296 -0.628264 0.511916 4.003999 -0.000001 -0.000002 0.000002 
-2.993426 84.284393 4.053328 1.015437 -52.959706 1.863227 0.000011 9.226297 1.577100 0.729877 2.238579 -4.722386 0.000000 16.254013 -0.165600 21.843389 10.980734 2.042092 0.000000 13.639583 -1.292302 19.272024 13.504755 4.544877 -0.000004 13.877396 -4.354189 -7.975430 1.193407 2.306230 0.000005 4.339996 0.926910 -0.000001 0.000001 -0.000002 -0.000001 4.026598 0.858495 -8.905049 23.431164 -9.861787 0.000001 21.748810 -0.000002 0.000001 -0.000000 -0.000000 3.005701 7.261780 7.955600 0.000001 -0.000000 -0.000000 -3.005701 7.261780 7.955601 0.000001 -0.000000 -0.000000 0.000003 2.030289 2.456197 0.000001 -0.000000 -0.000000 6.144199 10.187004 -3.793195 -3.033816 -31.254990 -5.295498 -56.781015 -3.996016 -49.914295 -87.692662 21.141066 -86.768900 -30.205419 -5.502077 5.901026 2.421024 -1.395542 2.392363 0.699370 9.503647 -2.418227 3.496504 -2.018687 2.018724 5.975143 12.647608 1.348440 4.011404 -2.315993 2.315977 -23.873504 -17.664336 1.604755 2.095771 -1.210009 1.209990 0.000004 -0.000002 0.000000 10.514774 -0.231361 2.264845 9.479734 -1.289635 -20.785563 0.709586 2.796616 -28.466917 0.714098 2.805016 -28.559806 2.334336 0.000014 0.000016 0.000002 -0.000001 -0.000000 10.490779 -0.000023 -0.000003 10.058187 -1.800470 -20.644721 1.774451 4.200729 -45.781959 1.632368 4.058134 -43.809298 2.752050 -0.000042 0.000020 0.000001 0.000000 0.000001 10.240763 -0.046028 -2.314146 1.256463 -0.066894 -17.945542 3.744587 5.453160 -68.964263 5.298076 9.647993 -33.747579 0.000002 0.000001 0.000005 9.820260 -0.209743 -4.418466 -7.938286 1.609117 -6.495688 2.210765 4.584014 -51.475137 0.883897 3.096282 -31.858092 -0.000001 -0.000002 -0.000002 -6.140197 10.186994 -3.793200 5.411948 -5.368189 0.810798 -22.484271 51.016435 42.403819 38.897439 123.901476 -51.461183 -1.991995 0.404825 -4.265305 -9.791030 -0.212920 -4.378335 -17.635846 -10.496829 3.325280 4.994445 -4.645781 94.147956 3.648021 -4.547248 77.470697 0.000003 0.000001 -0.000000 -10.391917 0.105184 -2.349878 -12.155664 -12.624053 9.228261 6.567922 -4.249071 114.232298 3.754957 -4.569699 78.826913 0.000000 0.000001 0.000000 -10.779237 -0.000002 0.000008 3.764145 -12.080495 1.143713 5.715095 -4.536460 103.133384 3.160366 -4.411089 71.242070 -0.000000 -0.000000 -0.000000 -10.577340 -0.175359 2.287357 0.357766 -5.832780 5.175817 0.094351 -0.933714 11.539794 0.778337 -2.579730 33.567204 0.000001 0.000001 0.000002 -2.570438 -1.245124 2.319045 13.942773 -4.273671 -5.299978 -3.518806 -2.031549 2.031565 7.113217 -20.767535 -2.619624 -3.945262 -2.277749 2.277755 -3.460572 -24.899330 -18.653820 -0.000001 -0.000002 0.000004 9.633795 -3.273310 0.000001 -30.805581 19.480014 5.125547 59.410181 6.898397 11.363270 -30.380292 5.805428 -7.265198 -0.183301 -12.185709 8.282301 0.653455 -0.030888 -2.611795 0.000000 0.000002 -0.000000 -9.633803 -3.273302 -0.000001 -46.240504 -8.910461 -20.213248 79.869910 5.800134 -1.968616 -7.442793 -0.078379 -0.553403 -0.183301 -12.185700 8.282304 -0.755403 0.313022 3.068172 0.000001 -0.000001 0.000001 
-3.498519 84.529823 4.139928 0.262080 -54.999453 0.998838 0.000009 9.226304 1.577099 1.051939 3.375996 -4.924571 0.000000 16.253994 -0.165603 21.733141 10.990193 2.174997 0.000002 13.639594 -1.292309 19.115510 13.573830 4.684999 0.000002 13.877390 -4.354200 -7.984408 1.391354 2.366368 -0.000004 4.339981 0.926915 -0.000001 0.000001 0.000003 -0.000003 4.026605 0.858510 -8.981696 23.830180 -9.751207 -0.000003 21.748795 -0.000004 -0.000001 -0.000000 0.000000 3.005698 7.261780 7.955598 -0.000001 -0.000000 0.000000 -3.005696 7.261795 7.955598 -0.000001 -0.000000 0.000000 -0.000002 2.030273 2.456194 -0.000001 -0.000000 0.000000 6.144198 10.186999 -3.793202 -3.006454 -29.476429 -6.147910 -56.086594 -4.779688 -50.447323 -87.391389 22.037470 -87.653792 -29.339518 -6.106347 6.014837 2.421014 -1.395558 2.392364 0.699371 9.503643 -2.418223 3.496508 -2.018658 2.018720 5.975144 12.647609 1.348445 4.011397 -2.315987 2.315969 -23.873509 -17.664331 1.604758 2.095786 -1.210026 1.209988 -0.000001 0.000003 0.000004 10.514774 -0.231407 2.264845 9.479731 -1.289638 -20.785563 0.709586 2.796612 -28.466919 0.714099 2.805014 -28.559804 2.334349 0.000016 0.000009 0.000003 -0.000002 0.000001 10.490757 -0.000031 -0.000002 10.058187 -1.800472 -20.644723 1.774450 4.200732 -45.781966 1.632368 4.058134 -43.809294 2.752069 -0.000044 0.000023 -0.000000 -0.000000 -0.000000 10.240751 -0.046056 -2.314150 1.256463 -0.066891 -17.945543 3.744586 5.453162 -68.964270 5.298079 9.647992 -33.747579 0.000003 0.000004 0.000005 9.820250 -0.209763 -4.418474 -7.938287 1.609112 -6.495690 2.210770 4.584017 -51.475130 0.883893 3.096285 -31.858096 -0.000001 -0.000001 -0.000003 -6.140201 10.187005 -3.793201 6.492755 -3.946521 0.604470 -22.134235 50.172165 41.617183 36.719227 123.942662 -49.213091 -2.649429 -0.155907 -4.457471 -9.791031 -0.212919 -4.378341 -17.635846 -10.496827 3.325280 4.994442 -4.645782 94.147956 3.648019 -4.547251 77.470697 0.000004 -0.000000 -0.000000 -10.391910 0.105154 -2.349900 -12.155660 -12.624051 9.228264 6.567921 -4.249071 114.232298 3.754959 -4.569699 78.826906 0.000000 -0.000000 0.000001 -10.779239 -0.000000 0.000000 3.764144 -12.080495 1.143713 5.715094 -4.536458 103.133384 3.160367 -4.411089 71.242076 0.000000 0.000000 -0.000000 -10.577335 -0.175374 2.287344 0.357767 -5.832781 5.175817 0.094351 -0.933711 11.539796 0.778336 -2.579729 33.567204 -0.000001 0.000001 0.000002 -2.570433 -1.245137 2.319045 13.942774 -4.273669 -5.299978 -3.518809 -2.031559 2.031560 7.113222 -20.767537 -2.619623 -3.945262 -2.277749 2.277747 -3.460570 -24.899332 -18.653817 -0.000004 0.000005 0.000002 9.633795 -3.273300 0.000001 -32.715366 20.512742 2.454648 58.717121 8.156486 11.567460 -27.918422 6.930734 -4.165364 -0.183300 -12.185709 8.282298 0.646501 -0.030731 -2.599423 0.000000 -0.000000 0.000000 -9.633804 -3.273298 0.000003 -39.716327 -11.470802 -17.216849 82.880609 15.305433 0.546864 -6.982688 -0.348459 2.396920 -0.183301 -12.185699 8.282301 -0.285286 -0.243928 6.113056 0.000003 -0.000000 0.000000 
-4.087518 84.290123 4.137803 -0.563753 -57.074416 0.053217 0.000011 9.226300 1.577101 1.388925 4.480498 -5.069585 0.000000 16.253988 -0.165601 21.632852 11.001304 2.314011 0.000002 13.639583 -1.292300 18.969944 13.638087 4.828294 -0.000005 13.877393 -4.354196 -7.993780 1.590756 2.427133 -0.000002 4.339981 0.926923 0.000000 0.000003 -0.000003 0.000005 4.026599 0.858508 -9.059841 24.232126 -9.638893 0.000001 21.748810 -0.000005 0.000001 0.000000 0.000001 3.005700 7.261780 7.955600 0.000001 0.000000 0.000001 -3.005700 7.261795 7.955598 0.000001 0.000000 0.000001 0.000004 2.030304 2.456196 0.000001 0.000000 0.000001 6.144197 10.187001 -3.793210 -2.645700 -27.842283 -6.500439 -55.500386 -5.095941 -50.820104 -87.002171 22.871913 -88.699992 -28.796231 -6.698385 5.966627 2.421012 -1.395532 2.392372 0.699368 9.503639 -2.418225 3.496507 -2.018702 2.018716 5.975141 12.647606 1.348445 4.011398 -2.315968 2.315986 -23.873511 -17.664327 1.604758 2.095782 -1.210012 1.209990 0.000001 0.000002 0.000002 10.514763 -0.231376 2.264861 9.479731 -1.289635 -20.785565 0.709587 2.796614 -28.466915 0.714101 2.805015 -28.559808 2.334342 0.000016 0.000008 0.000001 -0.000001 0.000000 10.490760 -0.000006 0.000005 10.058187 -1.800470 -20.644720 1.774449 4.200735 -45.781966 1.632362 4.058135 -43.809298 2.752051 -0.000047 0.000022 0.000001 0.000000 0.000000 10.240756 -0.046028 -2.314143 1.256464 -0.066897 -17.945542 3.744586 5.453163 -68.964263 5.298077 9.647992 -33.747582 0.000002 0.000001 0.000000 9.820251 -0.209734 -4.418466 -7.938287 1.609113 -6.495688 2.210769 4.584015 -51.475133 0.883893 3.096285 -31.858092 -0.000001 0.000005 0.000000 -6.140201 10.187007 -3.793212 7.354562 -2.644895 0.434934 -22.272077 49.584909 41.680488 34.774204 123.958726 -47.231742 -2.929882 -1.070478 -4.271552 -9.791021 -0.212904 -4.378344 -17.635846 -10.496827 3.325278 4.994443 -4.645782 94.147956 3.648019 -4.547252 77.470697 0.000001 -0.000000 -0.000000 -10.391915 0.105187 -2.349891 -12.155660 -12.624053 9.228259 6.567920 -4.249071 114.232298 3.754958 -4.569700 78.826906 -0.000002 -0.000000 -0.000000 -10.779238 0.000014 0.000002 3.764142 -12.080494 1.143713 5.715095 -4.536458 103.133377 3.160366 -4.411089 71.242070 0.000001 0.000001 0.000000 -10.577328 -0.175358 2.287344 0.357766 -5.832781 5.175817 0.094352 -0.933712 11.539797 0.778336 -2.579730 33.567204 0.000000 -0.000000 -0.000001 -2.570435 -1.245124 2.319051 13.942773 -4.273672 -5.299977 -3.518816 -2.031565 2.031552 7.113216 -20.767533 -2.619626 -3.945278 -2.277756 2.277741 -3.460571 -24.899335 -18.653817 -0.000001 0.000007 0.000002 9.633795 -3.273303 -0.000000 -35.019947 21.390250 0.178400 58.075070 10.230461 11.821524 -25.411290 7.467792 -1.641653 -0.183301 -12.185707 8.282302 0.646859 -0.030830 -2.597547 0.000000 0.000002 0.000000 -9.633806 -3.273302 0.000005 -34.479191 -13.004216 -15.083464 83.482110 20.989207 2.933227 -6.672483 -0.298295 5.644433 -0.183302 -12.185703 8.282302 0.783316 0.317574 5.767833 -0.000001 -0.000000 0.000001 
